<?xml version="1.0" encoding="utf-8"?>
<!-- Generator: Adobe Illustrator 16.0.0, SVG Export Plug-In . SVG Version: 6.00 Build 0)  -->
<!DOCTYPE svg PUBLIC "-//W3C//DTD SVG 1.1//EN" "http://www.w3.org/Graphics/SVG/1.1/DTD/svg11.dtd">
<svg version="1.1" id="Layer_1" xmlns="http://www.w3.org/2000/svg" xmlns:xlink="http://www.w3.org/1999/xlink" x="0px" y="0px"
	 width="612px" height="792px" viewBox="0 0 612 792" enable-background="new 0 0 612 792" xml:space="preserve">
<g>
	<g>
		<path fill="#FFFFFF" d="M281.745,419.729c-2.879-7.67-2.916-7.728,3.61-11.896c6.032-3.854,12.153-7.565,18.692-11.623
			c-46.972-28.589-93.764-57.067-141.187-85.928c0,6.014-0.103,11.16,0.042,16.3c0.076,2.711-0.807,4.267-3.646,4.32
			c-2.99,0.055-3.93-1.502-3.907-4.391c0.102-13.471,0.068-26.941,0.025-40.412c-0.009-2.608,0.38-4.657,3.649-4.643
			c2.986,0.014,3.814,0.978,3.83,4.769c0.017,3.865,0.137,7.735-0.046,11.592c-0.109,2.271,0.675,3.543,2.632,4.723
			c37.095,22.343,74.146,44.757,111.201,67.167c11.125,6.729,22.258,13.449,33.328,20.271c1.75,1.078,2.929,0.994,4.696-0.092
			c11.36-6.973,22.448-13.903,34.263-20.62c0.814-0.462,1.568-0.768,2.904-1.412c-1.652,5.574-1.011,9.563-7.85,13.946
			c-6.921,3.89-13.287,7.961-20.331,12.345c-1.002,0.624-1.943,1.349-3.001,2.087c42.158,25.676,84.07,51.199,126.684,77.152
			c0-6.475,0.039-12.16-0.021-17.844c-0.024-2.46,0.79-4.061,3.457-4.288c3.035-0.257,4.522,0.999,4.53,4.174
			c0.042,13.69,0.002,27.382,0.031,41.074c0.005,2.83-1.189,4.408-4.115,4.361c-2.759-0.043-3.915-1.585-3.892-4.25
			c0.035-3.644-0.13-7.292,0.056-10.93c0.109-2.188-0.743-3.337-2.564-4.434c-36.907-22.232-73.784-44.519-110.648-66.825
			c-6.599-3.993-13.163-8.053-19.638-12.243c-1.663-1.074-2.831-0.974-4.397,0.021c-8.374,5.306-16.798,10.529-25.214,15.769
			C283.9,418.603,282.822,419.136,281.745,419.729z"/>
		<path fill="#FFFFFF" d="M314.596,539.286c4.164,0,8.13,0.035,12.096-0.012c2.431-0.029,3.692,0.987,3.741,3.514
			c0.055,2.63-1.093,3.833-3.758,3.825c-13.248-0.036-26.493-0.033-39.739-0.004c-2.519,0.008-3.63-1.218-3.636-3.639
			c-0.005-2.391,1.027-3.723,3.576-3.694c4.075,0.043,8.15,0.012,12.912,0.012c-14.766-55.479-29.446-110.633-44.132-165.816
			c7.246,2.337,9.831,5.157,11.794,12.63c12.795,48.704,25.604,97.404,38.413,146.104c0.278,1.06,0.588,2.11,1.123,4.01
			c11.309-37.649,22.39-74.547,33.58-111.805c2.195,1.299,4.353,2.233,6.018,3.719c0.719,0.639,0.86,2.55,0.522,3.655
			c-4.059,13.245-8.368,26.415-12.388,39.673c-6.633,21.885-13.1,43.819-19.63,65.733
			C314.906,537.801,314.795,538.43,314.596,539.286z"/>
		<path fill="#FFFFFF" d="M391.542,253.07c-5.697,0-10.987-0.087-16.273,0.035c-2.854,0.067-4.468-0.945-4.438-3.927
			c0.028-2.832,1.67-3.782,4.309-3.774c13.024,0.038,26.049,0.038,39.072,0c2.668-0.008,4.247,1.003,4.233,3.825
			c-0.016,2.747-1.421,3.929-4.173,3.867c-4.184-0.096-8.369-0.025-12.913-0.025c-15.956,52.277-31.888,104.475-47.814,156.663
			c-0.117,0.016-0.239,0.068-0.316,0.03c-7.185-3.506-7.2-3.51-4.931-11.129c14.222-47.727,28.452-95.45,42.674-143.175
			C391.155,254.843,391.272,254.205,391.542,253.07z"/>
		<path fill="#FFFFFF" d="M162.856,482.095c33.584-20.339,66.602-40.337,100.07-60.607c0.711,2.643,1.581,4.892,1.801,7.202
			c0.083,0.865-1.154,2.188-2.113,2.772c-13.262,8.083-26.585,16.063-39.882,24.087c-19.242,11.609-38.462,23.254-57.731,34.817
			c-1.633,0.979-2.246,2.062-2.185,3.943c0.134,4.19,0.003,8.391,0.053,12.585c0.031,2.55-0.963,3.93-3.68,3.944
			c-2.652,0.016-3.807-1.201-3.804-3.819c0.014-14.021,0.009-28.039-0.047-42.061c-0.011-2.572,1.42-3.669,3.653-3.706
			c2.366-0.04,3.943,0.977,3.893,3.771C162.788,470.492,162.856,475.963,162.856,482.095z"/>
		<path fill="#FFFFFF" d="M258.542,352.511c-3.599-2.166-6.417-3.675-9.001-5.517c-0.936-0.668-1.576-2.059-1.894-3.243
			c-8.046-29.94-16.031-59.898-24.034-89.851c-0.053-0.195-0.205-0.363-0.479-0.831c-4.234,0-8.632-0.068-13.029,0.026
			c-2.639,0.057-4.233-0.757-4.298-3.683c-0.069-3.078,1.558-4.02,4.352-4.011c12.917,0.04,25.833,0.06,38.75-0.016
			c2.849-0.017,4.551,1.069,4.49,3.946c-0.061,2.884-1.839,3.865-4.663,3.781c-5.169-0.153-10.348-0.044-15.726-0.044
			C241.494,286.114,249.903,318.869,258.542,352.511z"/>
		<path fill="#FFFFFF" d="M448.424,318.021c-25.525,15.615-50.31,30.774-75.716,46.315c1.195-3.91,2.057-7.264,3.292-10.475
			c0.417-1.08,1.663-1.991,2.732-2.648c22.071-13.544,44.144-27.094,66.312-40.478c2.621-1.583,3.629-3.267,3.438-6.259
			c-0.258-3.958-0.015-7.947-0.08-11.921c-0.047-2.853,1.188-4.344,4.1-4.396c2.934-0.051,4.166,1.404,4.158,4.282
			c-0.037,13.249,0.021,26.499-0.077,39.748c-0.013,1.555-0.328,3.609-1.331,4.513c-0.967,0.872-3.209,1.086-4.508,0.589
			c-1.065-0.408-2.154-2.256-2.219-3.518C448.274,328.836,448.424,323.879,448.424,318.021z"/>
	</g>
</g>
</svg>
